<svg class="icon" width="36" height="20" viewBox="0 0 36 20" preserveAspectRatio="xMidYMid meet">
        <g fill="none" fill-rule="evenodd"><rect width="36" height="20" fill="#FDBD39" rx="4" style="
    fill: #f77;
"></rect><path fill="#FFF" fill-rule="nonzero" d="M6 14V6h1.668l3.446 5.644h.036V6h1.318v8h-1.475L7.354 7.97h-.036V14H6zm8.414 0V6h5.174v1.131h-3.687v2.193h2.865v1.12h-2.865v2.425h3.76V14h-5.247zm8.317 0l-2.067-8h1.511l1.414 5.924h.037L25.318 6h1.21l1.667 5.924h.037L29.658 6H31l-2.03 8h-1.476l-1.62-5.808h-.036L24.194 14H22.73z" style="
    fill: rgb(255, 255, 255);
    fill-rule: nonzero;
    d: path(&quot;M 6 14 V 6 h 1.668 l 3.446 5.644 h 0.036 V 6 h 1.318 v 8 h -1.475 L 7.354 7.97 h -0.036 V 14 H 6 Z m 8.414 0 V 6 h 5.174 v 1.131 h -3.687 v 2.193 h 2.865 v 1.12 h -2.865 v 2.425 h 3.76 V 14 h -5.247 Z m 8.317 0 l -2.067 -8 h 1.511 l 1.414 5.924 h 0.037 L 25.318 6 h 1.21 l 1.667 5.924 h 0.037 L 29.658 6 H 31 l -2.03 8 h -1.476 l -1.62 -5.808 h -0.036 L 24.194 14 H 22.73 Z&quot;);
"></path></g>
    </svg>