<svg xmlns="http://www.w3.org/2000/svg" width="36" height="36" viewBox="0 0 36 36"><g fill="none" fill-rule="evenodd"><path d="M0 0h36v36H0z"></path><g stroke-linejoin="round" transform="translate(2 3)"><rect width="4" height="8" x="3" y="21" fill="#FFB787" stroke="#000" rx="2"></rect><rect fill="#FFE2C7" width="24" height="25" rx="3"></rect><rect fill="#ffe2c7" width="24" height="25" rx="3"></rect><rect stroke="#000" width="24" height="25" rx="3" stroke-width="1.2"></rect><rect width="6" height="3" x="9" y="5" fill="#DB9F77" stroke="#FFF" rx="1.5"></rect><rect width="6" height="3" x="9" y="17" fill="#DB9F77" stroke="#FFF" rx="1.5"></rect><path fill="#FFDB92" stroke="#EDC29B" d="M1.5 12.5h21"></path></g><path fill="#35C5F0" d="M26.25 31.53l-3.7 1.32a1 1 0 01-1.34-.97l.1-3.93a.99.99 0 00-.2-.64l-2.4-3.11a1 1 0 01.51-1.57l3.77-1.12a1 1 0 00.55-.39l2.22-3.24a1 1 0 011.65 0l2.22 3.24a1 1 0 00.55.4l3.77 1.1a1 1 0 01.5 1.58l-2.4 3.11a1 1 0 00-.2.64l.11 3.93a1 1 0 01-1.33.97l-3.71-1.32a1 1 0 00-.67 0z"></path><path fill="#9AE2F7" d="M27.15 17.61a1 1 0 01.26.26l2.22 3.25c.06.09.13.16.22.23l-8.59 8.58.06-1.98a.99.99 0 00-.21-.64l-2.4-3.11a1 1 0 01.51-1.57l3.77-1.12a1 1 0 00.55-.39l2.22-3.24a1 1 0 011.39-.26z"></path><path stroke="#000" d="M26.29 30.85l-3.31 1.17a.9.9 0 01-1.2-.86l.1-3.51c0-.2-.06-.4-.18-.57l-2.14-2.78a.9.9 0 01.45-1.4l3.37-.99a.9.9 0 00.48-.35l1.99-2.9a.9.9 0 011.47 0l1.99 2.9c.11.17.28.3.48.35l3.37 1a.9.9 0 01.45 1.4l-2.14 2.77a.89.89 0 00-.18.57l.1 3.5a.9.9 0 01-1.2.87l-3.3-1.17a.9.9 0 00-.6 0z" stroke-width="1.2"></path></g></svg>