<svg xmlns="http://www.w3.org/2000/svg" width="36" height="36" viewBox="0 0 36 36"><g fill="none" fill-rule="evenodd"><path d="M0 0h36v36H0z"></path><path fill="#EDEDED" d="M17 10h2v22h-2z"></path><path fill="#FFF" d="M3 10.2c3.65-1.07 6.98-1.07 10 0h10.16c2.98-1 6.26-1 9.84 0v21c-5.79-1.62-10.79-1.29-15 1-4.21-2.37-9.21-2.7-15-1z"></path><path fill="#EDEDED" d="M16.5 15h3v16c-.66.8-1.16 1.2-1.5 1.2-.34 0-.84-.4-1.5-1.2V15z"></path><path stroke="#000" stroke-linecap="round" stroke-linejoin="round" d="M3 10.2c3.65-1.07 6.98-1.07 10 0h10.16c2.98-1 6.26-1 9.84 0h0v1.97h0V31.2c-5.79-1.62-10.79-1.29-15 1-4.21-2.37-9.21-2.7-15-1z"></path><g transform="translate(11 3)"><path fill="#FFDB92" stroke="#000" d="M7 0a7 7 0 013 13.33V17H4v-3.67A7 7 0 017 0z"></path><path stroke="#000" stroke-linecap="square" d="M7 15.68V8.5"></path><circle cx="7" cy="7.5" r="1.5" fill="#000"></circle><path fill="#FFF" stroke="#000" stroke-linecap="round" stroke-linejoin="round" d="M3 16h8v7H3z"></path><path stroke="#000" stroke-linecap="square" d="M3 18.5h8m-8 2h8"></path></g></g></svg>