<svg fill="none" xmlns="http://www.w3.org/2000/svg" viewBox="0 0 36 36" width="36" height="36"><rect x="6.54" y="3.59" width="27" height="29" rx="2.5" transform="rotate(4 6.54 3.6)" fill="#DBDBDB" stroke="#000" stroke-linejoin="round"></rect><rect x="2.5" y="1.5" width="27" height="29" rx="2.5" fill="#fff" stroke="#000" stroke-linejoin="round"></rect><rect x="5" y="4" width="22" height="22" rx="1" fill="#FFE2C7"></rect><path fill-rule="evenodd" clip-rule="evenodd" d="M14 7l5 .45v3.5l-5-.45V7zm0 4.5V15l5 .45v-3.5l-5-.45zm6 .55v3.5l5 .45v-3.5l-5-.45zm5-.55V8l-5-.45v3.5l5 .45z" fill="#fff"></path><path fill-rule="evenodd" clip-rule="evenodd" d="M5 19l22 2v7L5 26v-7z" fill="#E6A87C"></path><path fill-rule="evenodd" clip-rule="evenodd" d="M5 3.45h5v16l-5 4v-20z" fill="#F1C8A3"></path></svg>