<svg xmlns="http://www.w3.org/2000/svg" width="36" height="36" viewBox="0 0 36 36"><g fill="none" fill-rule="evenodd"><path d="M0 0h36v36H0z"></path><path fill="#E4F2F6" d="M18 5c8.28 0 15 5.8 15 12.96 0 7.16-6.72 12.96-15 12.96-2.76 0-5.35-.65-7.58-1.77l-5.37 2.37 2-4.7A12.03 12.03 0 013 17.95C3 10.8 9.72 5 18 5z" fill-rule="nonzero"></path><path fill="#CAE5EC" d="M33 17.96c0 7.16-6.72 12.96-15 12.96-2.76 0-5.35-.65-7.58-1.77l-5.38 2.37 2-4.7a12.46 12.46 0 01-3.68-6.03c3.25 3.22 10.05 3.96 16.87 1.48 5.69-2.07 9.92-5.85 11.42-9.7A11.46 11.46 0 0133 17.96z"></path><path stroke="#000" stroke-linecap="round" stroke-linejoin="round" d="M18 5c8.28 0 15 5.76 15 12.86S26.28 30.7 18 30.7c-2.76 0-5.35-.64-7.58-1.75L5.06 31.3l2-4.67A11.9 11.9 0 013 17.86C3 10.76 9.72 5 18 5z"></path><g fill="#000" fill-rule="nonzero" stroke="#FFF"><path d="M18 22.12a1.6 1.6 0 011.13 2.73 1.6 1.6 0 11-2.26-2.26 1.6 1.6 0 011.13-.47zm.26-10.82c1.02 0 1.86.3 2.5.76a3.5 3.5 0 011.35 2.11c.17.82.07 1.72-.35 2.56a4.85 4.85 0 01-1.88 1.97c-.23.13-.38.31-.49.56-.13.32-.19.73-.19 1.24a1.2 1.2 0 11-2.4 0c0-.93.16-1.72.46-2.36.32-.67.8-1.18 1.43-1.52.42-.25.72-.56.9-.89.18-.33.25-.67.2-.98-.06-.3-.22-.57-.48-.75-.26-.2-.62-.3-1.05-.3-.68 0-1.2.11-1.54.4-.33.28-.48.72-.52 1.3a1.2 1.2 0 01-1.3 1.1 1.2 1.2 0 01-1.1-1.29c.1-1.27.57-2.24 1.33-2.9a4.62 4.62 0 013.13-1.01z"></path></g></g></svg>