<svg xmlns="http://www.w3.org/2000/svg" width="36" height="36" viewBox="0 0 36 36"><g fill="none" fill-rule="evenodd"><path d="M0 0h36v36H0z"></path><path fill="#FFF6E6" d="M27.2 29.31H4.8V14.38h22.4"></path><path fill="#EDE2CD" d="M27.2 17.18H4.8v-2.8h22.4"></path><path stroke="#000" stroke-linecap="round" stroke-linejoin="round" d="M4.8 29.31V14.38h22.4v14.93H4.8z"></path><path fill="#FFF" d="M16 19.05a4.67 4.67 0 014.67 4.66v5.6h-9.34v-5.6A4.67 4.67 0 0116 19.05z"></path><path fill="#fff" d="M16 19.05a4.67 4.67 0 014.67 4.66v5.6h-9.34v-5.6A4.67 4.67 0 0116 19.05z"></path><path stroke="#000" d="M16 19.05a4.67 4.67 0 014.67 4.66v5.6h-9.34v-5.6A4.67 4.67 0 0116 19.05z"></path><path fill="#FBDEC1" d="M2.94 14.38a.9.9 0 01-.81-1.3l3.25-6.6a.9.9 0 01.8-.5h19.64c.34 0 .65.2.8.5l3.25 6.6a.9.9 0 01-.8 1.3H2.93z"></path><path fill="#E9C39D" d="M2.94 14.38a.9.9 0 01-.81-1.3l.74-1.5h26.26l.74 1.5a.9.9 0 01-.8 1.3H2.92z"></path><path stroke="#000" stroke-linecap="round" stroke-linejoin="round" d="M2.94 14.38a.9.9 0 01-.81-1.3l3.25-6.6a.9.9 0 01.8-.5h19.64c.34 0 .65.2.8.5h0l3.25 6.6a.9.9 0 01-.8 1.3h0H2.93z"></path><g transform="translate(26 9)"><path fill="#fff" d="M0 5h8.07v12H0z"></path><path fill="#ffdb92" d="M0 0h8v4H0z"></path><path d="M8.5 17.43H-.52 8.5L4 23.8l-4.52-6.37H8.5" fill="#fff6e6"></path><path d="M8.5 1v0A1.49 1.49 0 007-.5H1v0A1.5 1.5 0 00-.5 1l-.02 16.43L4 23.8l4.5-6.37z" stroke="#000"></path><path fill="#000" d="M4 23l2-2H2z"></path><rect width="6" height="2" x="-14" y="3" stroke="#000" rx="1" transform="rotate(-90)" ry="1"></rect><rect width="5" height="1" x="-13.5" y="3.5" fill="#ffdb92" rx=".5" transform="rotate(-90)" ry=".5"></rect><path fill="#000" d="M0 4h8v1H0z" opacity=".9"></path><path d="M-.52 17.43H8.5" stroke="#000"></path></g><path fill="#000" d="M30 32l2-2h-4z"></path></g></svg>